<svg id="Layer_1" data-name="Layer 1" xmlns="http://www.w3.org/2000/svg" xmlns:xlink="http://www.w3.org/1999/xlink" viewBox="0 0 1920 1080"><defs><style>.cls-1{fill:#fe4745;}.cls-2{fill:url(#linear-gradient);}.cls-3{fill:url(#linear-gradient-2);}.cls-4{fill:url(#linear-gradient-3);}.cls-5{fill:url(#linear-gradient-4);}.cls-6{fill:url(#linear-gradient-5);}.cls-7{fill:url(#linear-gradient-6);}.cls-8{fill:url(#linear-gradient-7);}.cls-9{fill:url(#linear-gradient-8);}.cls-10{fill:#fff;}.cls-11{fill:url(#linear-gradient-9);}.cls-12{opacity:0.09;}.cls-13{fill:url(#linear-gradient-10);}.cls-14{fill:url(#linear-gradient-11);}.cls-15{fill:url(#ÕÓ_È_Ó·_ÁÂ_ËÂÌÚ_3);}.cls-16{fill:#ff5831;}.cls-17{fill:#e53005;}.cls-18{fill:#ff3800;}.cls-19{fill:#ff9700;}.cls-20{fill:#ffb600;}.cls-21{fill:#ffce00;}.cls-22{fill:url(#linear-gradient-12);}.cls-23{fill:#eda400;}.cls-24{fill:#ffdb45;}.cls-25{fill:#c92809;}.cls-26{fill:#ff7f00;}</style><linearGradient id="linear-gradient" x1="112" y1="679.7" x2="251.95" y2="679.7" gradientUnits="userSpaceOnUse"><stop offset="0" stop-color="#ff8a3f"/><stop offset="1" stop-color="#ffac2a"/></linearGradient><linearGradient id="linear-gradient-2" x1="279.25" y1="681.85" x2="450.82" y2="681.85" xlink:href="#linear-gradient"/><linearGradient id="linear-gradient-3" x1="483.86" y1="679.7" x2="637.32" y2="679.7" xlink:href="#linear-gradient"/><linearGradient id="linear-gradient-4" x1="641.63" y1="679.7" x2="837.62" y2="679.7" xlink:href="#linear-gradient"/><linearGradient id="linear-gradient-5" x1="1271.11" y1="666.97" x2="1465.6" y2="666.97" xlink:href="#linear-gradient"/><linearGradient id="linear-gradient-6" x1="1469.88" y1="666.97" x2="1681.19" y2="666.97" xlink:href="#linear-gradient"/><linearGradient id="linear-gradient-7" x1="1709.71" y1="666.97" x2="1862" y2="666.97" xlink:href="#linear-gradient"/><linearGradient id="linear-gradient-8" x1="793.86" y1="302.51" x2="1268.76" y2="777.41" gradientUnits="userSpaceOnUse"><stop offset="0" stop-color="#00e97e"/><stop offset="1" stop-color="#00d490"/></linearGradient><linearGradient id="linear-gradient-9" x1="792.1" y1="304.28" x2="1267" y2="779.18" xlink:href="#linear-gradient-8"/><linearGradient id="linear-gradient-10" x1="-2909.17" y1="700.66" x2="-2767.31" y2="700.66" gradientTransform="matrix(-1, 0, 0, 1, -2477.43, 0)" gradientUnits="userSpaceOnUse"><stop offset="0" stop-color="#ff3800"/><stop offset="1" stop-color="#ffce00"/></linearGradient><linearGradient id="linear-gradient-11" x1="-2845.11" y1="805.72" x2="-2842.86" y2="625.48" gradientTransform="matrix(-1, 0, 0, 1, -2477.43, 0)" gradientUnits="userSpaceOnUse"><stop offset="0.27" stop-color="#ff1700"/><stop offset="0.3" stop-color="#ff2100"/><stop offset="0.46" stop-color="#ff4c00"/><stop offset="0.61" stop-color="#ff6e00"/><stop offset="0.76" stop-color="#ff8700"/><stop offset="0.89" stop-color="#ff9600"/><stop offset="1" stop-color="#ff9b00"/></linearGradient><linearGradient id="ÕÓ_È_Ó·_ÁÂ_ËÂÌÚ_3" x1="-2843.87" y1="676.34" x2="-2841.94" y2="825.1" gradientTransform="matrix(-1, 0, 0, 1, -2477.43, 0)" gradientUnits="userSpaceOnUse"><stop offset="0.02" stop-color="#ffce00"/><stop offset="0.27" stop-color="#ffb500"/><stop offset="0.3" stop-color="#ffb000"/><stop offset="0.78" stop-color="#ff5a00"/><stop offset="1" stop-color="#ff3800"/></linearGradient><linearGradient id="linear-gradient-12" x1="-2822.33" y1="765.16" x2="-2802.76" y2="765.16" gradientTransform="matrix(-1, 0, 0, 1, -2477.43, 0)" gradientUnits="userSpaceOnUse"><stop offset="0" stop-color="#a81106"/><stop offset="0.34" stop-color="#c01f19"/><stop offset="1" stop-color="#f84145"/></linearGradient></defs><title>Logo-01</title><path class="cls-1" d="M117.77,239.56h178v39.89H165.57v73.77h96.72V389H165.57V502.64h-47.8Z"/><path class="cls-1" d="M325.9,239.56h47.8V502.64H325.9Z"/><path class="cls-1" d="M418.86,239.56h109.9q43.65,0,67.37,21.45t23.71,62.1q0,29-14.3,49.31t-40.65,29l53.44,101.24H569.41L518.6,406.29H466.66v96.35h-47.8ZM520.1,366.77q23.34,0,37.64-10.92T572,323.11q0-44-51.94-44H466.66v87.7Z"/><path class="cls-1" d="M657.47,239.56h178v39.51H705.27v72.27H802v39.52H705.27v72.26H835.5v39.52h-178Z"/><path class="cls-2" d="M140.6,781.14q-17.4-3.3-28.6-8.77V741.05a136.9,136.9,0,0,0,30.18,10.35,145.76,145.76,0,0,0,31,3.45q19.26,0,29.31-7.19t10.06-19.83q0-8.91-4.6-14.8t-13.5-10.34q-8.91-4.46-27.3-11.64Q139,679.56,126.37,665.47t-12.64-35.06a49.16,49.16,0,0,1,8.9-29q8.91-12.63,25-19.54t37.07-6.9a153.87,153.87,0,0,1,30.6,2.74,127.5,127.5,0,0,1,26.3,8.48v30.46q-25-12.07-50.58-12.07-18.39,0-28.45,6.75t-10.06,19.11q0,8.91,4.6,14.51a37.45,37.45,0,0,0,12.21,9.49q7.62,3.87,27.45,12.21Q216.9,675,228.53,683a55.16,55.16,0,0,1,17.53,18.83Q252,712.6,252,728.12q0,26.73-19.25,41.53t-56.9,14.8A188.24,188.24,0,0,1,140.6,781.14Z"/><path class="cls-3" d="M301,762.17q-21.7-22.26-21.7-60.2V579.26h36.5V702.54q0,23.87,13.36,36.35t36.07,12.51q22.41,0,35.78-12.51t13.36-36.35V579.26h36.5V702q0,37.93-21.56,60.2t-64.08,22.28Q322.64,784.45,301,762.17Z"/><path class="cls-4" d="M483.86,579.26h83.92q33.33,0,51.44,16.38t18.1,47.41q0,22.14-10.92,37.65t-31,22.13l40.8,77.3H598.81L560,706.57H520.36v73.56h-36.5Zm77.31,97.13q17.8,0,28.74-8.34t10.92-25q0-33.62-39.66-33.62H520.36v67Z"/><path class="cls-5" d="M641.63,579.26h38.8l59.2,152,59.49-152h38.5L757.45,780.13H722.1Z"/><path class="cls-6" d="M1271.11,567.31h38.5l58.75,150.85,59-150.85h38.21L1386,766.64H1351Z"/><path class="cls-7" d="M1521.64,758a95.62,95.62,0,0,1-37.92-36.65q-13.85-23.67-13.84-54.18t13.84-54.19a96.64,96.64,0,0,1,37.92-36.79q24.1-13.11,54-13.11,29.65,0,53.76,13.11a96.77,96.77,0,0,1,37.92,36.79q13.83,23.69,13.83,54.19t-13.83,54a97,97,0,0,1-37.92,36.64q-24.12,13.13-53.76,13.12Q1545.73,770.92,1521.64,758Zm88.83-28.52a64.5,64.5,0,0,0,25-24.81q9.27-16.11,9.27-37.5,0-21.11-9.12-37.22A64.59,64.59,0,0,0,1610.76,605a70.27,70.27,0,0,0-35.08-8.84,71,71,0,0,0-35.22,8.84,64.21,64.21,0,0,0-25,24.95q-9.12,16.11-9.12,37.22,0,21.38,9.26,37.5a64.32,64.32,0,0,0,25.09,24.81,71.37,71.37,0,0,0,34.94,8.69A70.47,70.47,0,0,0,1610.47,729.43Z"/><path class="cls-8" d="M1709.71,567.31H1793q33.08,0,51,16.25t18,47.05q0,22-10.84,37.36t-30.8,22l40.5,76.71h-37.08l-38.49-73h-39.36v73h-36.22Zm76.72,96.38q17.67,0,28.51-8.27t10.84-24.81q0-33.36-39.35-33.36h-40.5v66.44Z"/><polygon class="cls-9" points="859.38 785.96 859.38 237 1255.04 237 1255.04 784.92 1205.32 840.85 1132.82 840.85 1170.11 800.46 1119.35 802.53 1088.28 835.67 800.34 835.67 859.38 785.96"/><circle class="cls-10" cx="1123.94" cy="325.54" r="49.05"/><path class="cls-10" d="M1107.77,384.43l-157.09.69a11,11,0,0,0-9.46,5.42l-44,74.53a11,11,0,0,0,4.23,15.3l14.38,7.81A11,11,0,0,0,930.66,484l34-58.6a11,11,0,0,1,9.88-5.49l47.41,1.45a11,11,0,0,1,9.31,16.39l-44.73,80.39a11.07,11.07,0,0,0-1.23,3.47l-20.18,115.7a11,11,0,0,1-10.73,9.14l-102.83,1.28a11.06,11.06,0,0,0-9,4.81L827.27,675a11,11,0,0,0,9,17.26l153.51,1.85a11,11,0,0,0,10.94-8.81l18.9-91.94a11,11,0,0,1,20.71-2.64l86.36,175.77a11,11,0,0,0,10.36,6.16l29-1.21a11,11,0,0,0,9.49-15.81l-102.87-213.8a11.05,11.05,0,0,1,.24-10l39-72.25a11,11,0,0,1,18-2l40,46a11.06,11.06,0,0,0,8.33,3.8H1235a11,11,0,0,0,11-10.36l.84-13.84a11,11,0,0,0-11.14-11.71l-43.28.52a11,11,0,0,1-8.54-3.89l-67.64-79.69A11.05,11.05,0,0,0,1107.77,384.43Z"/><polygon class="cls-11" points="857.61 787.72 857.61 238.77 1253.27 238.77 1253.27 786.69 1203.56 842.62 1131.05 842.62 1168.34 802.23 1117.59 804.3 1086.51 837.44 798.57 837.44 857.61 787.72"/><circle class="cls-10" cx="1122.18" cy="327.31" r="49.05"/><path class="cls-10" d="M1106,386.2l-157.09.68a11,11,0,0,0-9.45,5.43l-44,74.52a11,11,0,0,0,4.24,15.31L914.08,490a11,11,0,0,0,14.82-4.16l34-58.6a11.05,11.05,0,0,1,9.89-5.5l47.41,1.45a11,11,0,0,1,9.3,16.4l-44.73,80.39a11,11,0,0,0-1.22,3.47L963.35,639.1a11,11,0,0,1-10.74,9.13l-102.83,1.29a11,11,0,0,0-9,4.81l-15.31,22.4a11,11,0,0,0,9,17.26L988,695.84A11,11,0,0,0,998.93,687l18.89-91.94a11,11,0,0,1,20.72-2.64l86.35,175.77a11,11,0,0,0,10.36,6.16l29-1.21a11,11,0,0,0,9.48-15.81l-102.86-213.8a11,11,0,0,1,.23-10l39-72.26a11,11,0,0,1,18-2l40,46a11,11,0,0,0,8.33,3.79h56.7a11,11,0,0,0,11-10.36l.85-13.84a11,11,0,0,0-11.15-11.71l-43.27.53a11.06,11.06,0,0,1-8.55-3.89l-67.63-79.69A11,11,0,0,0,1106,386.2Z"/><polygon class="cls-12" points="861.03 237.02 1254.96 784.63 1205.5 841.16 1133.07 841.16 1169.58 800.53 1118.06 803.18 1089.79 836.74 802.74 835.86 857.5 787.28 861.03 237.02"/><path class="cls-13" d="M289.88,713.48c0-.61,0-1.2,0-1.81s.07-1.39.14-2c1.17-28.5,11.4-47.72,25.63-56.66,1.34-.33,3.94,0,3.66,3.42,0,.08,0,.16,0,.24,0,.68-1.82,4.15-3.68,7.34-7.82,16.06-2.1,28.43-2,29.1-.36.75.09.1,2-3.42,15.69-28.76,20-37.37,28.35-47,15.43-17.85,34.05-26.84,60-26.38-1,5.29-16.89,18.71-14.72,40.35,1.78,17.75,11.82,24.71,17.55,30.71,13.13,13.74,22.78,25,22.95,44.51,0,4-1.38,9.13-1.29,9.17-10.27,25.77-28.61,44-65,44-42.33,0-73.71-25.85-73.63-71.45v-.12ZM403.46,636.8c2.5,10.58,1.76,14,10,22.92,6,6.44,9.25,9.49,13.44,16.28,5.3,8.57,5.67,29,3.73,33.34-1.1,2.46-4.62-10.46-18-22.48-7.12-6.39-10-9.56-13.6-14.9-8.4-12.33-4-29-1.85-33.12C400.87,631.71,402.51,632.81,403.46,636.8Z"/><path class="cls-14" d="M362.45,783.8c-11.65-3.09-26.17-10.94-37.68-30.68a57.49,57.49,0,0,1-7.36-34.66c1.23-12.79,8.15-25.82,15.53-36.22,7.78-12.39,18.85-22.39,27.87-34.38,3.27-4.4,10.13-14.66,9.72-20.66.41,8.8,6.26,19.06,11.59,25.86,9,11.59,18.44,21.59,25.82,34.38,11.88,21.59,11.6,52.11-5.39,72.53C392.67,771.85,382.14,778.51,362.45,783.8Z"/><path class="cls-15" d="M361.39,783.51c-7.67-2.64-13.87-9-17.07-14.59-10.79-16.39-9-41.49,7.76-54.29-3.77,5.33.84,13.58,6.31,12.17,10.5-2.72,3.28-16,1.71-25.58-1.41-8.61,2.37-14.66,6.59-18.67-2.19,11.88,9,20.63,15.2,29.2,9.3,12.93,14.49,25.79,10.09,41.78a42,42,0,0,1-29.51,30.27Z"/><polygon class="cls-16" points="362.52 785.04 384.31 782.69 378.62 778.74 362.52 785.04"/><polygon class="cls-16" points="379.15 778.74 403.67 762.75 384.48 782.47 379.15 778.74"/><polygon class="cls-17" points="384.48 782.47 400.47 777.67 405.27 761.15 384.48 782.47"/><polygon class="cls-18" points="400.47 777.67 421.79 761.68 405.27 761.15 400.47 777.67"/><polygon class="cls-16" points="405.27 761.15 409.32 749.72 393.57 769.34 405.27 761.15"/><polygon class="cls-19" points="362.63 785.13 337.05 771.81 340.84 782.33 362.63 785.13"/><polygon class="cls-20" points="340.78 782.47 309.88 765.57 337.05 771.81 340.78 782.47"/><polygon class="cls-21" points="340.78 782.47 317.86 776.07 309.86 765.41 340.78 782.47"/><polygon class="cls-22" points="337.05 771.81 344.89 775.66 325.33 754.67 337.05 771.81"/><polygon class="cls-20" points="337.05 771.81 309.86 765.41 302.9 757.54 337.05 771.81"/><polygon class="cls-23" points="337.05 771.81 324.39 752.44 319.97 764.67 337.05 771.81"/><polygon class="cls-19" points="362.63 785.13 379.56 778.47 375.47 777.67 362.63 785.13"/><polygon class="cls-17" points="362.63 785.13 375.42 777.67 349.84 776.05 362.63 785.13"/><polygon class="cls-17" points="362.63 785.13 349.84 776.07 345.04 775.54 362.63 785.13"/><polygon class="cls-16" points="349.84 776.07 335.45 757.42 345.04 775.54 349.84 776.07"/><polygon class="cls-16" points="345.04 775.54 335.45 757.42 324.25 752.62 345.04 775.54"/><polygon class="cls-24" points="324.77 753.12 302.93 757.42 319.99 764.88 324.77 753.12"/><polygon class="cls-21" points="324.79 753.15 304.53 721.71 302.93 757.42 324.79 753.15"/><polygon class="cls-23" points="302.93 757.42 294.94 746.22 304.53 721.71 302.93 757.42"/><polygon class="cls-21" points="294.94 746.77 289.07 725.44 304.53 721.71 294.94 746.77"/><polygon class="cls-23" points="289.07 725.44 290.14 702.52 304.53 721.71 289.07 725.44"/><polygon class="cls-23" points="290.47 702.96 293.34 683.33 303.47 673.74 290.47 702.96"/><polygon class="cls-21" points="293.34 683.33 302.4 659.88 302.9 674.27 293.34 683.33"/><polygon class="cls-20" points="303.07 674.34 317.19 649.14 302.38 659.96 303.07 674.34"/><polygon class="cls-21" points="317.86 648.69 312.19 674.27 302.89 673.74 317.86 648.69"/><polygon class="cls-24" points="317.86 648.69 319.99 655.08 312.31 673.74 317.86 648.69"/><polygon class="cls-24" points="312.53 673.74 313.59 692.92 302.93 673.74 312.53 673.74"/><polygon class="cls-20" points="302.93 673.74 304.81 722.13 290.67 703.05 302.93 673.74"/><polygon class="cls-21" points="302.93 673.74 313.59 692.92 304.53 721.71 302.93 673.74"/><polygon class="cls-25" points="421.79 762.21 432.98 738.76 405.27 761.15 421.79 762.21"/><polygon class="cls-17" points="432.98 738.23 427.12 716.38 423.54 746.39 432.98 738.23"/><polygon class="cls-18" points="425.23 732.25 405.27 761.15 423.39 746.22 425.23 732.25"/><polygon class="cls-19" points="379.15 778.74 393.54 769.14 385.55 766.48 379.15 778.74"/><polygon class="cls-16" points="393.54 769.14 409.32 749.09 385.55 766.48 393.54 769.14"/><polygon class="cls-17" points="379.15 778.74 375.42 777.67 385.55 766.48 379.15 778.74"/><polygon class="cls-16" points="375.42 777.67 371.16 759.02 349.84 776.07 375.42 777.67"/><polyline class="cls-26" points="350.9 776.07 339.71 759.02 335.45 757.42 349.84 776.07 350.5 775.54 371.16 759.02 339.62 759 350.37 775.54"/><polygon class="cls-20" points="313.59 692.92 317.86 705.72 304.53 721.71 313.59 692.92"/><polygon class="cls-24" points="317.86 705.72 316.03 739.56 304.53 721.71 317.86 705.72"/><polygon class="cls-20" points="316.26 739.29 325.32 752.62 316.26 727.04 316.26 739.29"/><polygon class="cls-18" points="325.32 752.62 330.12 728.1 316.64 728.1 325.32 752.62"/><polygon class="cls-17" points="339.71 759.02 330.12 728.1 325.32 752.62 339.71 759.02"/><polygon class="cls-21" points="337.58 723.84 335.45 707.85 330.12 717.98 337.58 723.84"/><polygon class="cls-24" points="335.45 707.85 330.12 717.98 330.12 707.32 335.45 707.85"/><polygon class="cls-19" points="345.57 708.91 348.24 696.12 341.31 705.72 345.57 708.91"/><polygon class="cls-20" points="348.24 696.12 341.31 699.85 341.31 705.72 348.24 696.12"/><polygon class="cls-26" points="349.3 753.15 363.69 737.16 357.3 753.15 349.3 753.15"/><polygon class="cls-21" points="349.3 753.15 346.11 746.22 364.23 736.63 349.3 753.15"/><polygon class="cls-16" points="363.69 737.16 363.69 747.82 357.3 753.15 363.69 737.16"/><polygon class="cls-16" points="404.74 738.76 399.94 749.96 399.94 734.5 404.74 738.76"/><polygon class="cls-16" points="420.19 715.84 420.73 729.7 416.99 723.84 420.19 715.84"/><polygon class="cls-20" points="323.19 688.13 323.6 686.44 328.51 666.14 313.59 692.92 323.19 688.13"/><polygon class="cls-24" points="313.86 692.45 323.19 688.13 317.32 706.36 313.86 692.45"/><polygon class="cls-21" points="329.05 680.13 339.18 660.41 330.12 666.81 329.05 680.13"/><polygon class="cls-20" points="329.05 680.13 342.38 666.81 339.18 659.88 329.05 680.13"/><polygon class="cls-20" points="344.51 684.93 351.97 670.01 353.04 678.53 344.51 684.93"/><polygon class="cls-24" points="351.97 670.01 341.31 679.6 343.97 684.93 351.97 670.01"/><polygon class="cls-20" points="358.9 659.88 363.69 651.88 357.3 655.62 358.9 659.88"/><polygon class="cls-16" points="384.48 745.16 380.22 763.81 374.35 748.89 384.48 745.16"/><polygon class="cls-21" points="399.94 734.5 395.67 740.36 399.94 749.96 399.94 734.5"/><polygon class="cls-18" points="381.82 732.37 378.62 738.76 371.69 731.3 381.82 732.37"/><polygon class="cls-21" points="407.4 725.44 411.13 734.5 404.74 731.3 407.4 725.44"/></svg>