<svg xmlns="http://www.w3.org/2000/svg" viewBox="0 0 563 222"><defs><style>.cls-1,.cls-3,.cls-4{fill:#212121;}.cls-2{fill:#4983b7;}.cls-3{font-size:118.31px;}.cls-3,.cls-4{font-family:Kanit-Regular, Kanit;}.cls-4{font-size:59.25px;}</style></defs><title>exambg</title><g id="Layer_2" data-name="Layer 2"><path class="cls-1" d="M43.37,32.51H77q12.52,0,18.9,6.9t6.38,18.25q0,11.23-7,18T76.48,82.47H56.12v25.39H43.37Zm30.77,39.9q7.37,0,11.35-3.92t4-10.82q0-7.25-3.74-11.23t-11-4H56.12v30Z"/><path class="cls-1" d="M300.05,42.45H276V32.51h60.84v9.95h-24v65.4H300.05Z"/><path class="cls-1" d="M347,32.51H399.5v9.95H359.72V65.27h35.45V75.1H359.72V98H399.5v9.83H347Z"/><path class="cls-1" d="M410.62,105.28V94.05A61.4,61.4,0,0,0,433,98.26q9.48,0,13.75-2.22T451,87.73a9.6,9.6,0,0,0-1.81-6.14,14.07,14.07,0,0,0-5.91-3.92A108.21,108.21,0,0,0,431,73.93q-12.17-3.16-17.08-8T409,52.52q0-10.06,7.37-15.62t21.53-5.56a80,80,0,0,1,12,.88,52.42,52.42,0,0,1,9.42,2.16V45.61a54.75,54.75,0,0,0-19.66-3.39q-8.89,0-13.34,2.34t-4.45,8A8.44,8.44,0,0,0,423.49,58a13.45,13.45,0,0,0,5.44,3.63A84.27,84.27,0,0,0,440.33,65q13.22,3.39,18.37,8.77t5.15,13.92q0,10.06-7.55,15.68T434.13,109Q419.51,109,410.62,105.28Z"/><path class="cls-1" d="M492.87,42.45h-24.1V32.51H529.6v9.95h-24v65.4H492.87Z"/><rect class="cls-2" x="6" y="6" width="14.24" height="202"/><path class="cls-1" d="M43.78,170.2V144h6.54v24.54a2.86,2.86,0,0,0,.63,2,2.67,2.67,0,0,0,2,.66h2.4v5.16H50.08Q43.78,176.44,43.78,170.2Zm14.58,0V144h6.48v24.54a2.86,2.86,0,0,0,.63,2,2.67,2.67,0,0,0,2,.66h2.46v5.16H64.66Q58.36,176.44,58.36,170.2Z"/><path class="cls-1" d="M80.17,173.71q-3.87-3.33-3.87-9.87V144h6.54v20q0,4,2.07,5.85t6.21,1.89q4.14,0,6.24-1.89t2.1-5.85V144h6.48v19.8q0,6.54-3.84,9.87t-11,3.33Q84,177,80.17,173.71Z"/><path class="cls-1" d="M117.43,173.71q-3.87-3.33-3.87-9.87V144h6.54v20q0,4,2.07,5.85t6.21,1.89q4.14,0,6.24-1.89t2.1-5.85V144h6.48v19.8q0,6.54-3.84,9.87t-11,3.33Q121.3,177,117.43,173.71Z"/><path class="cls-1" d="M150.82,144h5.94l.36,3.54a17.19,17.19,0,0,1,11.52-4.14,10.43,10.43,0,0,1,8,3.06q2.88,3.06,2.88,8.58v21.36H173V155.38q0-3.48-1.65-5.07a7.07,7.07,0,0,0-5.07-1.59,11.61,11.61,0,0,0-4.92,1.08,13.23,13.23,0,0,0-4,2.82v23.82h-6.54Z"/><path class="cls-1" d="M189.52,173q-3.6-4-3.6-12.27t4.2-12.75q4.2-4.53,12.36-4.53a18.9,18.9,0,0,1,8.79,1.83,12.07,12.07,0,0,1,5.16,4.8,13.3,13.3,0,0,1,1.65,6.57v19.8h-6.54v-19.5a8.27,8.27,0,0,0-2.13-6.06q-2.13-2.16-7.05-2.16-5.22,0-7.68,3t-2.46,9q0,5.94,2,8.52t6.09,2.58a13.39,13.39,0,0,0,4.14-.48v5a16.16,16.16,0,0,1-5.28.72A12.28,12.28,0,0,1,189.52,173Z"/><path class="cls-1" d="M227.71,174.64q-3-2.4-3-7.5a9,9,0,0,1,3.21-7.41q3.21-2.61,9.39-2.61h9.9v-2q0-3.54-1.83-5t-6.57-1.41a34.39,34.39,0,0,0-10.56,1.56v-5a40,40,0,0,1,5.58-1.29,38,38,0,0,1,6.12-.51,25.68,25.68,0,0,1,5.58.6h10.86l-.36,5.1h-3.78a8.77,8.77,0,0,1,1.11,2.85,18.41,18.41,0,0,1,.33,3.69v20.76h-6.48V162.16h-9.54a9,9,0,0,0-5.07,1.14,4.33,4.33,0,0,0-1.65,3.84,4.12,4.12,0,0,0,1.5,3.63q1.5,1.05,5,1a14.59,14.59,0,0,0,4.08-.48v5a20.85,20.85,0,0,1-5.82.72A12.53,12.53,0,0,1,227.71,174.64Z"/><path class="cls-1" d="M267.31,176.38a27.84,27.84,0,0,1-5.85-1.74V158H274.3l.3,5h-6.84v7.86a19.06,19.06,0,0,0,6.6,1,12.27,12.27,0,0,0,5.7-1.11,6.55,6.55,0,0,0,3.06-3.6,19.26,19.26,0,0,0,1-6.75,18.08,18.08,0,0,0-1.08-7,6.67,6.67,0,0,0-3.51-3.57,17.23,17.23,0,0,0-6.81-1.08,35,35,0,0,0-10.74,1.56v-5a34.13,34.13,0,0,1,5.79-1.32,45.2,45.2,0,0,1,6.57-.48q8.34,0,12.21,4.23t3.87,12.69q0,8.34-3.87,12.51T274.36,177A36.83,36.83,0,0,1,267.31,176.38Z"/><path class="cls-1" d="M300.61,173.71q-3.87-3.33-3.87-9.87V144h6.54v20q0,4,2.07,5.85t6.21,1.89q4.14,0,6.24-1.89t2.1-5.85V144h6.48v19.8q0,6.54-3.84,9.87t-11,3.33Q304.48,177,300.61,173.71Z"/><path class="cls-1" d="M439.83,170.2V144h6.48v24.54a2.86,2.86,0,0,0,.63,2,2.67,2.67,0,0,0,2,.66h2.76v5.16h-5.58Q439.83,176.44,439.83,170.2Z"/><path class="cls-1" d="M462.54,176.62a19.9,19.9,0,0,1-4.83-1.2V170a24.6,24.6,0,0,0,4.86,1.38,27.82,27.82,0,0,0,5,.48,17.69,17.69,0,0,0,6.24-.78,3,3,0,0,0,1.86-3.12,3.51,3.51,0,0,0-.72-2.31,5.15,5.15,0,0,0-2-1.41q-1.26-.54-3.9-1.38l-2.34-.78a23.74,23.74,0,0,1-7.35-3.69,7,7,0,0,1-2.43-5.67,8,8,0,0,1,3.3-6.81q3.3-2.43,9.72-2.43a34.81,34.81,0,0,1,5.34.42,30.35,30.35,0,0,1,4.56,1v5.4a24.15,24.15,0,0,0-4.35-1.14,27,27,0,0,0-4.59-.42,15.61,15.61,0,0,0-5.73.81,3,3,0,0,0-2,3,2.91,2.91,0,0,0,.81,2.1,6.35,6.35,0,0,0,2.19,1.41q1.38.57,4.26,1.53l1.74.54a21.52,21.52,0,0,1,7.44,3.81,7.73,7.73,0,0,1,2.28,6,7.62,7.62,0,0,1-3.48,6.87Q475,177,468.75,177A44.44,44.44,0,0,1,462.54,176.62Z"/><path class="cls-1" d="M456,134.56h19.32v-5h5.4v9.54h-25Z"/><path class="cls-1" d="M491,174.58a8.36,8.36,0,0,1-4-7.68,7.84,7.84,0,0,1,4.5-7.32,6.25,6.25,0,0,1-3.15-2.49,7.6,7.6,0,0,1-1.17-4.29,8.74,8.74,0,0,1,2.76-6.93,10.76,10.76,0,0,1,7.38-2.43,16,16,0,0,1,5.28.78v5a15.46,15.46,0,0,0-4.08-.48q-5,0-5,4.08,0,4.26,5.64,4.26h3.42l.3,4.86H499q-5.7,0-5.7,5a4,4,0,0,0,2,3.69q2,1.23,6.3,1.23t6.36-1.71a6.3,6.3,0,0,0,2.1-5.19V144h6.48v20.1q0,6.54-3.66,9.72t-11,3.18Q495,177,491,174.58Z"/><path class="cls-1" d="M527.1,173.95q-2.91-3.09-2.91-8.67V144h6.54V165q0,3.6,1.59,5.22t5.07,1.62a12,12,0,0,0,5-1.08,12.31,12.31,0,0,0,4-2.82V144h6.48v32.4h-5.94l-.3-3.54a16.88,16.88,0,0,1-11.4,4.14Q530,177,527.1,173.95Z"/><text class="cls-3" transform="translate(102.76 108.47)">RE</text><text class="cls-4" transform="translate(329.76 175.78)">ก่อน</text></g></svg>